#!OML:ASF H:\GeneralSubjects\Female5\Project 1\Capture day 1\Session 1\Female5.ASF
:FULLY-SPECIFIED
:DEGREES
526
root -14.0752 15.8547 -2.31283 251.621 -87.4093 116.007
lowerback 10.4302 0.102883 -4.98739
upperback -9.11063 -0.551605 2.95189
thorax -16.1433 0.476663 6.34766
lowerneck -14.5823 -0.532154 -3.3706
upperneck 34.3788 2.74615 -11.1979
head 14.5032 -1.35026 -3.72113
rclavicle 3.8763e-015 -1.66979e-014
rhumerus -53.905 24.4776 -82.9086
rradius 37.4777
rwrist -19.3934
rhand -18.0606 -11.7288
rfingers 7.12502
rthumb 8.21183 -41.5492
lclavicle 3.8763e-015 -1.66979e-014
lhumerus -39.4197 1.27177 76.2587
lradius 43.2575
lwrist -0.95846
lhand -29.6927 28.7355
lfingers 7.12502
lthumb -3.02065 58.6938
rfemur -30.2862 0.00801954 21.1621
rtibia 45.7894
rfoot -14.4988 -19.9481
rtoes -21.5891
lfemur -2.56406 -17.7965 -39.3972
ltibia 6.27378
lfoot -14.8702 9.11174
ltoes -67.02
527
root -14.3552 15.8619 -2.31924 275.411 -87.4376 92.1171
lowerback 10.4721 -0.126613 -5.53213
upperback -9.09399 -0.963398 2.93885
thorax -16.0894 0.34768 6.74222
lowerneck -14.6857 -0.614537 -3.34482
upperneck 34.503 2.55761 -10.9398
head 14.5629 -1.39464 -3.65612
rclavicle -5.96354e-015 -1.59028e-015
rhumerus -54.4046 24.0392 -82.526
rradius 37.3406
rwrist -20.165
rhand -17.5631 -12.2603
rfingers 7.12502
rthumb 8.69196 -42.0614
lclavicle -5.96354e-015 -1.59028e-015
lhumerus -38.4164 0.335836 77.1737
lradius 44.0534
lwrist -0.742402
lhand -30.4495 27.4863
lfingers 7.12502
lthumb -3.75157 57.433
rfemur -31.2897 0.770751 21.3001
rtibia 40.4373
rfoot -12.4322 -25.163
rtoes -29.6714
lfemur -0.722233 -18.2955 -40.1479
ltibia 5.43163
lfoot -14.5111 9.11166
ltoes -67.3218
528
root -14.6412 15.8654 -2.32911 298.433 -87.0799 69.0444
lowerback 10.5181 -0.396537 -6.10464
upperback -9.12606 -1.42694 3.03003
thorax -16.0814 0.208601 7.28888
lowerneck -14.66 -0.705448 -3.41975
upperneck 34.5516 2.3812 -10.737
head 14.5617 -1.45087 -3.58695
rclavicle 5.36719e-015 1.19271e-014
rhumerus -54.984 23.9416 -82.2342
rradius 37.1464
rwrist -20.6529
rhand -17.4972 -12.5821
rfingers 7.12502
rthumb 8.75554 -42.3805
lclavicle 5.36719e-015 1.19271e-014
lhumerus -37.578 -0.372716 78.1278
lradius 44.7407
lwrist -0.729371
lhand -30.3931 28.2044
lfingers 7.12502
lthumb -3.69708 58.1521
rfemur -30.8756 2.38993 21.1203
rtibia 34.2988
rfoot -9.80773 -28.0896
rtoes -39.5095
lfemur 1.09331 -18.774 -40.8188
ltibia 4.66879
lfoot -14.0684 9.2011
ltoes -67.6537
529
root -14.9336 15.8627 -2.34374 314.18 -86.2976 53.3351
lowerback 10.4866 -0.682392 -6.87052
upperback -9.18943 -1.94037 3.16845
thorax -16.0406 0.070731 8.0113
lowerneck -14.6799 -0.792113 -3.46575
upperneck 34.6555 2.2565 -10.6922
head 14.6061 -1.50964 -3.58803
rclavicle 1.78906e-014 -1.43125e-014
rhumerus -55.5914 24.0475 -81.9774
rradius 36.8623
rwrist -20.838
rhand -17.5271 -12.6254
rfingers 7.12502
rthumb 8.72673 -42.425
lclavicle 1.78906e-014 -1.43125e-014
lhumerus -36.805 -0.842618 79.069
lradius 45.2438
lwrist -0.905343
lhand -30.0802 29.274
lfingers 7.12502
lthumb -3.39491 59.2267
rfemur -30.3483 4.09737 20.6961
rtibia 26.7415
rfoot -6.08553 -31.3346
rtoes -45.4389
lfemur 2.81265 -19.1832 -41.5026
ltibia 3.91018
lfoot -14.3267 8.34253
ltoes -66.7685
530
root -15.2294 15.8501 -2.36414 325.111 -85.3883 42.5549
lowerback 10.2959 -0.963495 -7.63372
upperback -9.23856 -2.42851 3.35928
thorax -15.8672 -0.0623135 8.77538
lowerneck -14.9314 -0.884501 -3.45735
upperneck 34.8329 2.14025 -10.6474
head 14.7393 -1.5627 -3.60827
rclavicle -2.51463e-014 1.74931e-014
rhumerus -56.166 24.1921 -81.6589
rradius 36.5914
rwrist -20.8305
rhand -17.4344 -12.4213
rfingers 7.12502
rthumb 8.81619 -42.2172
lclavicle -2.51463e-014 1.74931e-014
lhumerus -35.7026 -1.28204 80.0401
lradius 45.2391
lwrist -1.19907
lhand -30.3841 28.8505
lfingers 7.12502
lthumb -3.68841 58.7983
rfemur -29.76 6.24218 20.0832
rtibia 19.5138
rfoot -5.60149 -32.9884
rtoes -45.8321
lfemur 4.2966 -19.4877 -41.9321
ltibia 3.21028
lfoot -14.4676 7.46045
ltoes -65.8662
531
root -15.5322 15.8293 -2.39028 333.726 -84.4265 34.1302
lowerback 10.0276 -1.21783 -8.2881
upperback -9.30939 -2.85152 3.57298
thorax -15.6716 -0.180092 9.48204
lowerneck -15.2164 -1.02223 -3.48794
upperneck 35.0488 1.94323 -10.506
head 14.8921 -1.64213 -3.59725
rclavicle 3.12092e-014 -2.54444e-014
rhumerus -56.7992 24.2623 -81.3203
rradius 36.3161
rwrist -20.467
rhand -16.8048 -12.546
rfingers 7.12502
rthumb 9.42367 -42.3153
lclavicle 3.12092e-014 -2.54444e-014
lhumerus -34.4688 -1.70518 81.0534
lradius 44.8933
lwrist -1.71548
lhand -30.686 28.1425
lfingers 7.12502
lthumb -3.97988 58.0851
rfemur -29.1268 9.13003 19.2016
rtibia 12.5171
rfoot -9.97269 -33.7463
rtoes -41.1966
lfemur 5.73929 -19.8156 -42.1194
ltibia 2.49758
lfoot -14.7166 6.54573
ltoes -64.9378
532
root -15.8391 15.8013 -2.41233 339.092 -83.3632 28.9333
lowerback 9.82718 -1.41003 -8.86944
upperback -9.44032 -3.1969 3.68617
thorax -15.6088 -0.267792 10.0189
lowerneck -15.3934 -1.20386 -3.51225
upperneck 35.3436 1.66623 -10.3685
head 15.0537 -1.75811 -3.60644
rclavicle -2.49475e-014 7.95139e-016
rhumerus -57.6671 24.2532 -81.1535
rradius 36.0017
rwrist -19.9585
rhand -15.8431 -13.0522
rfingers 7.12502
rthumb 10.3515 -42.7774
lclavicle -2.49475e-014 7.95139e-016
lhumerus -33.3852 -2.09782 82.1205
lradius 44.3794
lwrist -2.64713
lhand -30.9051 27.7909
lfingers 7.12502
lthumb -4.19147 57.7294
rfemur -28.567 13.6781 17.2999
rtibia 5.92241
rfoot -18.1714 -34.1965
rtoes -31.6221
lfemur 7.19404 -19.8284 -42.3626
ltibia 1.8914
lfoot -15.0373 5.34824
ltoes -63.9926
533
root -16.1496 15.7645 -2.42383 342.456 -82.3067 25.7534
lowerback 9.57709 -1.53658 -9.31928
upperback -9.57262 -3.43009 3.74571
thorax -15.5428 -0.32353 10.3872
lowerneck -15.5413 -1.42898 -3.60143
upperneck 35.5679 1.3139 -10.148
head 15.1707 -1.89575 -3.57429
rclavicle -1.72943e-014 1.27222e-014
rhumerus -58.6909 24.3077 -81.1659
rradius 35.7061
rwrist -19.6668
rhand -15.3232 -13.2505
rfingers 7.12502
rthumb 10.853 -42.95
lclavicle -1.72943e-014 1.27222e-014
lhumerus -32.3615 -2.4611 83.2395
lradius 43.762
lwrist -4.15834
lhand -31.6164 28.1816
lfingers 7.12502
lthumb -4.87835 58.1054
rfemur -28.6637 22.2433 13.133
rtibia 0.265213
rfoot -32.0164 -34.913
rtoes -18.4887
lfemur 8.60071 -19.5789 -42.6679
ltibia 1.42163
lfoot -14.9942 4.13605
ltoes -62.8366
534
root -16.4699 15.7153 -2.43052 345.23 -81.2313 23.1012
lowerback 9.28908 -1.64191 -9.658
upperback -9.68548 -3.60541 3.82564
thorax -15.4414 -0.367391 10.6972
lowerneck -15.639 -1.69235 -3.89013
upperneck 35.6718 0.907059 -9.76649
head 15.2168 -2.05144 -3.43538
rclavicle 9.93923e-015 -3.18055e-015
rhumerus -59.6462 24.4639 -81.2181
rradius 35.2779
rwrist -19.6522
rhand -15.0931 -13.0318
rfingers 7.12502
rthumb 11.075 -42.7196
lclavicle 9.93923e-015 -3.18055e-015
lhumerus -31.4991 -2.61565 84.3435
lradius 43.2698
lwrist -6.08856
lhand -32.3459 29.1795
lfingers 7.12502
lthumb -5.58274 59.086
rfemur -28.2926 23.2635 13.2342
rtibia -3.04783
rfoot -35.2705 -30.9145
rtoes -4.9933
lfemur 10.0898 -19.4813 -42.9742
ltibia 1.03727
lfoot -14.7195 3.12076
ltoes -61.3925
535
root -16.7999 15.6545 -2.43569 347.463 -80.1076 20.8355
lowerback 9.19258 -1.79326 -9.96634
upperback -9.83811 -3.85469 3.94591
thorax -15.4901 -0.430525 11.072
lowerneck -15.6902 -1.88268 -4.17203
upperneck 35.8509 0.645269 -9.53018
head 15.3029 -2.17351 -3.34288
rclavicle 1.78906e-015 -3.18055e-015
rhumerus -60.5675 24.7604 -81.3019
rradius 34.6965
rwrist -19.6512
rhand -14.7586 -12.9582
rfingers 7.12502
rthumb 11.3975 -42.6284
lclavicle 1.78906e-015 -3.18055e-015
lhumerus -31.1038 -2.46657 85.3759
lradius 43.047
lwrist -7.56171
lhand -32.4279 29.3501
lfingers 7.12502
lthumb -5.66191 59.2545
rfemur -27.9394 24.1708 13.3158
rtibia -4.84192
rfoot -34.5903 -29.9795
rtoes -0.747831
lfemur 11.6366 -19.4486 -43.2305
ltibia 0.916327
lfoot -14.5086 1.98794
ltoes -59.9553
536
root -17.1324 15.5896 -2.43809 349.452 -79.0733 18.7464
lowerback 9.25637 -1.92547 -10.1242
upperback -10.041 -4.07219 4.07781
thorax -15.7157 -0.475923 11.3886
lowerneck -15.7852 -2.00297 -4.32001
upperneck 36.1057 0.514009 -9.48179
head 15.4462 -2.25573 -3.34172
rclavicle 1.0138e-014 5.56597e-015
rhumerus -61.5798 25.1588 -81.5472
rradius 34.0588
rwrist -19.643
rhand -14.8269 -12.7793
rfingers 7.12502
rthumb 11.3317 -42.4532
lclavicle 1.0138e-014 5.56597e-015
lhumerus -31.1049 -2.46259 86.4003
lradius 43.0541
lwrist -8.17243
lhand -32.1201 28.67
lfingers 7.12502
lthumb -5.36472 58.5821
rfemur -27.8241 25.0228 13.2781
rtibia -5.14822
rfoot -36.2764 -28.7694
rtoes 7.20236
lfemur 13.0297 -19.332 -43.299
ltibia 1.12939
lfoot -14.3948 0.663439
ltoes -58.7454
537
root -17.4666 15.5243 -2.44057 350.474 -78.0243 17.7696
lowerback 9.17733 -2.0303 -10.3297
upperback -10.2643 -4.2586 4.13061
thorax -15.886 -0.512402 11.6208
lowerneck -15.899 -2.14263 -4.46933
upperneck 36.2118 0.341437 -9.37355
head 15.5189 -2.33599 -3.30917
rclavicle 5.68524e-014 -1.74931e-014
rhumerus -62.49 25.423 -81.7978
rradius 33.3557
rwrist -19.54
rhand -15.1195 -12.5865
rfingers 7.12502
rthumb 11.0495 -42.2757
lclavicle 5.68524e-014 -1.74931e-014
lhumerus -31.3894 -2.64873 87.4101
lradius 43.3484
lwrist -8.37776
lhand -31.4622 27.7234
lfingers 7.12502
lthumb -4.72945 57.6506
rfemur -27.9346 25.7707 12.8806
rtibia -4.39419
rfoot -38.5202 -27.6831
rtoes 11.9108
lfemur 13.9469 -18.8306 -43.2062
ltibia 1.74252
lfoot -13.9153 -1.08557
ltoes -57.6368
538
root -17.8249 15.4583 -2.427 349.695 -77.059 18.7916
lowerback 8.58695 -2.11882 -10.6962
upperback -10.475 -4.41414 4.03269
thorax -15.7197 -0.565355 11.7031
lowerneck -16.069 -2.29354 -4.71747
upperneck 36.2174 0.141409 -9.10832
head 15.5547 -2.4113 -3.18892
rclavicle 9.14409e-015 2.06736e-014
rhumerus -63.0979 25.3567 -81.7537
rradius 32.5617
rwrist -18.8811
rhand -14.6784 -12.9553
rfingers 7.12502
rthumb 11.4749 -42.6212
lclavicle 9.14409e-015 2.06736e-014
lhumerus -31.9776 -2.73158 88.2563
lradius 43.818
lwrist -8.62654
lhand -31.3664 27.1677
lfingers 7.12502
lthumb -4.63693 57.0969
rfemur -27.9397 26.5903 11.9566
rtibia -3.29838
rfoot -38.5733 -28.2629
rtoes 13.1844
lfemur 14.5992 -18.4411 -43.5407
ltibia 2.76456
lfoot -13.4883 -2.88193
ltoes -56.6613
539
root -18.1929 15.4013 -2.41156 348.533 -76.0321 20.1956
lowerback 8.02364 -2.18806 -11.1157
upperback -10.7281 -4.56803 3.82787
thorax -15.6313 -0.611725 11.6927
lowerneck -16.1534 -2.46684 -5.00375
upperneck 36.1836 -0.109643 -8.78444
head 15.5499 -2.50168 -3.03992
rclavicle -3.57812e-015 -1.59028e-014
rhumerus -63.5926 25.0806 -81.7005
rradius 31.6092
rwrist -17.9782
rhand -14.0499 -13.4654
rfingers 7.12502
rthumb 12.081 -43.0967
lclavicle -3.57812e-015 -1.59028e-014
lhumerus -32.8565 -2.88764 88.9055
lradius 44.2525
lwrist -8.98166
lhand -31.4098 27.1196
lfingers 7.12502
lthumb -4.67888 57.0479
rfemur -27.5419 27.3495 10.9112
rtibia -2.52705
rfoot -34.6577 -32.3043
rtoes 10.3555
lfemur 15.1109 -18.2203 -43.9975
ltibia 4.18295
lfoot -12.9844 -4.77688
ltoes -55.8119
540
root -18.5646 15.3511 -2.39369 348.163 -75.1034 20.6679
lowerback 7.65412 -2.30174 -11.4842
upperback -10.9994 -4.77238 3.8212
thorax -15.6658 -0.656543 11.9199
lowerneck -16.1576 -2.53271 -5.27236
upperneck 36.0943 -0.145289 -8.67705
head 15.5117 -2.53162 -2.94608
rclavicle -6.10269e-014 2.54444e-014
rhumerus -63.9215 25.2055 -81.6594
rradius 30.5165
rwrist -17.2743
rhand -14.4029 -13.5686
rfingers 7.12502
rthumb 11.7406 -43.2196
lclavicle -6.10269e-014 2.54444e-014
lhumerus -34.1336 -2.50981 89.4629
lradius 44.8308
lwrist -9.34156
lhand -31.1266 27.3131
lfingers 7.12502
lthumb -4.40539 57.2473
rfemur -27.7962 28.0824 9.89938
rtibia -1.0026
rfoot -28.4615 -39.9386
rtoes -3.20191
lfemur 15.7549 -18.1433 -44.3016
ltibia 5.66311
lfoot -12.2011 -6.1915
ltoes -54.9157
